<svg xmlns="http://www.w3.org/2000/svg" viewBox="0 0 93.28 93.28"><defs><style>.cls-1{fill:#007cb0;}.cls-2{fill:#045578;}.cls-3{fill:#fff;}</style></defs><g id="Lag_2" data-name="Lag 2"><g id="Lag_1-2" data-name="Lag 1"><path class="cls-1" d="M93.28,46.64A46.64,46.64,0,1,1,46.64,0,46.64,46.64,0,0,1,93.28,46.64Z"/><path class="cls-2" d="M32.19,91,53.44,79.35,62,73.09,60.79,20.3,56.58,15l-19.9-.85S1.83,33.57,1.45,35.05A46.71,46.71,0,0,0,32.19,91Z"/><path class="cls-3" d="M25.51,29.68c.09.43.07.33.19,1,.06.31.13.68.75.57a28,28,0,0,0,3.29-.95L30,30.2v43c0,1.42,1.62,6.61,7.06,6.61H57.79c5.1,0,5.43-5.19,5.43-6.61V30.16l.32.12a28,28,0,0,0,3.29.95c.62.11.69-.26.75-.57.13-.65.11-.55.19-1,.37-1.94-2.42-2.18-2.42-2.18l-2.23-.43C62.75,22.93,61,13.44,53.3,13.44H39.87c-7.07,0-9.23,9.51-9.77,13.64l-2.17.42S25.14,27.74,25.51,29.68ZM57.07,74.44c-3.29.61-17.57.61-20.86,0-.73-.14-1.21-.71-1.08-1.23l1.2-5H57c.4,1.67.8,3.33,1.21,5C58.28,73.73,57.8,74.3,57.07,74.44Zm3.82-5-3.24-3.93V56.09h3.24Zm0-15H57.65v-15l3.24-3.93Zm-7.54-39.3c2.93,0,4.57,1.86,5.48,4.21-.13.32-.35.6-1,.39a33.53,33.53,0,0,1-4.07-1.84c-.94-.5-2.12-.92-2.47-2.76Zm-13.42,0h2c-.35,1.84-1.53,2.26-2.47,2.76a34.8,34.8,0,0,1-4.06,1.84c-.65.21-.87-.07-1-.39C35.36,17,37,15.12,39.93,15.12Zm-4.82,11c5.13-1,17.93-1,23.06,0,1.15.22,1.9,1.11,1.7,1.92L58,36a1.6,1.6,0,0,1-1.85,1.15c-3.77-.71-15.15-.71-18.92,0A1.6,1.6,0,0,1,35.33,36l-1.92-8C33.21,27.18,34,26.29,35.11,26.07Zm-2.73,9.45,3.25,3.93v15H32.38Zm0,20.56h3.25v9.45l-3.25,3.93Z"/></g></g></svg>