<?xml version="1.0" encoding="UTF-8"?>
<!DOCTYPE svg  PUBLIC '-//W3C//DTD SVG 1.1//EN'  'http://www.w3.org/Graphics/SVG/1.1/DTD/svg11.dtd'>
<svg clip-rule="evenodd" fill-rule="evenodd" stroke-linecap="round" stroke-linejoin="round" stroke-miterlimit="1.5" version="1.1" viewBox="0 0 1e3 1e3" xml:space="preserve" xmlns="http://www.w3.org/2000/svg"><path d="m663.47 516.43c-37.284 27.716-83.075 41.551-129.47 39.114h-107.56v181.1h-109.13v-508.48h223.73c44.219-2.367 87.773 11.546 122.43 39.114 32.547 31.866 49.061 76.668 44.981 122.04 4.972 46.992-11.558 93.714-44.981 127.12zm-82.14-182.66c-16.608-12.157-36.955-18.11-57.498-16.819h-97.395v149.42h97.395c20.789 1.276 41.305-5.284 57.498-18.383 14.844-15.439 22.268-36.556 20.339-57.889 2.112-20.887-5.37-41.606-20.339-56.325z" fill-rule="nonzero"/><path d="m193.45 165.14v632.35" fill="none" stroke="#000" stroke-width="75.08px"/><path d="m824.71 165.14v632.35" fill="none" stroke="#000" stroke-width="75.08px"/></svg>
