<?xml version="1.0" encoding="UTF-8"?>
<!DOCTYPE svg  PUBLIC '-//W3C//DTD SVG 1.1//EN'  'http://www.w3.org/Graphics/SVG/1.1/DTD/svg11.dtd'>
<svg clip-rule="evenodd" fill-rule="evenodd" stroke-linecap="round" stroke-linejoin="round" stroke-miterlimit="1.5" version="1.1" viewBox="0 0 1e3 1e3" xml:space="preserve" xmlns="http://www.w3.org/2000/svg"><path d="m728.62 552.01c-56.767 42.201-126.49 63.265-197.12 59.555h-163.78v275.74h-166.16v-774.21h340.65c67.327-3.603 133.64 17.58 186.4 59.554 49.556 48.519 74.699 116.73 68.488 185.81 7.569 71.548-17.598 142.69-68.488 193.55zm-125.06-278.12c-25.286-18.51-56.267-27.574-87.545-25.609h-148.29v227.5h148.29c31.654 1.941 62.89-8.046 87.545-27.991 22.601-23.506 33.905-55.659 30.969-88.14 3.215-31.802-8.177-63.348-30.969-85.758z" fill-rule="nonzero"/><path d="m35.915 51.252v897.5" fill="none" stroke="#000" stroke-width="75.08px"/><path d="m964.17 51.252v897.5" fill="none" stroke="#000" stroke-width="75.08px"/></svg>
